<mxfile host="app.diagrams.net" modified="2022-12-05T11:31:53.850Z" agent="5.0 (Macintosh; Intel Mac OS X 10_15_7) AppleWebKit/537.36 (KHTML, like Gecko) Chrome/108.0.0.0 Safari/537.36" version="20.6.0" etag="2m4zqFR4E53RGHo87lgu" type="github">
  <diagram id="OWWn8ibkb71ldWmZIYjO" name="第 1 页">
    <mxGraphModel dx="1298" dy="777" grid="1" gridSize="10" guides="1" tooltips="1" connect="1" arrows="1" fold="1" page="1" pageScale="1" pageWidth="827" pageHeight="1169" math="0" shadow="0">
      <root>
        <mxCell id="0" />
        <mxCell id="1" parent="0" />
        <mxCell id="OowxRQwR9CB8sg7_UXT1-1" value="Commit: [-B][Debug][fix]修复****" style="whiteSpace=wrap;html=1;" vertex="1" parent="1">
          <mxGeometry x="340" y="250" width="120" height="50" as="geometry" />
        </mxCell>
        <mxCell id="OowxRQwR9CB8sg7_UXT1-2" value="git push" style="whiteSpace=wrap;html=1;" vertex="1" parent="1">
          <mxGeometry x="340" y="320" width="120" height="50" as="geometry" />
        </mxCell>
        <mxCell id="OowxRQwR9CB8sg7_UXT1-17" style="edgeStyle=orthogonalEdgeStyle;rounded=0;orthogonalLoop=1;jettySize=auto;html=1;entryX=0.5;entryY=0;entryDx=0;entryDy=0;" edge="1" parent="1" source="OowxRQwR9CB8sg7_UXT1-3" target="OowxRQwR9CB8sg7_UXT1-4">
          <mxGeometry relative="1" as="geometry" />
        </mxCell>
        <mxCell id="OowxRQwR9CB8sg7_UXT1-3" value="Custom Server" style="whiteSpace=wrap;html=1;" vertex="1" parent="1">
          <mxGeometry x="340" y="450" width="120" height="50" as="geometry" />
        </mxCell>
        <mxCell id="OowxRQwR9CB8sg7_UXT1-16" style="edgeStyle=orthogonalEdgeStyle;rounded=0;orthogonalLoop=1;jettySize=auto;html=1;entryX=0;entryY=0.5;entryDx=0;entryDy=0;" edge="1" parent="1">
          <mxGeometry relative="1" as="geometry">
            <mxPoint x="452" y="580" as="sourcePoint" />
            <mxPoint x="962" y="820" as="targetPoint" />
            <Array as="points">
              <mxPoint x="812" y="580" />
              <mxPoint x="812" y="820" />
            </Array>
          </mxGeometry>
        </mxCell>
        <mxCell id="OowxRQwR9CB8sg7_UXT1-34" value="否" style="edgeLabel;html=1;align=center;verticalAlign=middle;resizable=0;points=[];fontColor=#000000;" vertex="1" connectable="0" parent="OowxRQwR9CB8sg7_UXT1-16">
          <mxGeometry x="-0.5627" y="1" relative="1" as="geometry">
            <mxPoint as="offset" />
          </mxGeometry>
        </mxCell>
        <mxCell id="OowxRQwR9CB8sg7_UXT1-19" style="edgeStyle=orthogonalEdgeStyle;rounded=0;orthogonalLoop=1;jettySize=auto;html=1;entryX=0.5;entryY=0;entryDx=0;entryDy=0;" edge="1" parent="1" source="OowxRQwR9CB8sg7_UXT1-4" target="OowxRQwR9CB8sg7_UXT1-14">
          <mxGeometry relative="1" as="geometry" />
        </mxCell>
        <mxCell id="OowxRQwR9CB8sg7_UXT1-35" value="是" style="edgeLabel;html=1;align=center;verticalAlign=middle;resizable=0;points=[];fontColor=#000000;" vertex="1" connectable="0" parent="OowxRQwR9CB8sg7_UXT1-19">
          <mxGeometry x="-0.28" y="-1" relative="1" as="geometry">
            <mxPoint as="offset" />
          </mxGeometry>
        </mxCell>
        <mxCell id="OowxRQwR9CB8sg7_UXT1-4" value="include [-B]?" style="rhombus;whiteSpace=wrap;html=1;" vertex="1" parent="1">
          <mxGeometry x="350" y="540" width="100" height="80" as="geometry" />
        </mxCell>
        <mxCell id="OowxRQwR9CB8sg7_UXT1-5" value="MAS Builder.py" style="whiteSpace=wrap;html=1;" vertex="1" parent="1">
          <mxGeometry x="340" y="690" width="120" height="50" as="geometry" />
        </mxCell>
        <mxCell id="OowxRQwR9CB8sg7_UXT1-6" value="End" style="ellipse;whiteSpace=wrap;html=1;" vertex="1" parent="1">
          <mxGeometry x="960" y="780" width="120" height="80" as="geometry" />
        </mxCell>
        <mxCell id="OowxRQwR9CB8sg7_UXT1-7" value="BucketSaver.sh" style="whiteSpace=wrap;html=1;" vertex="1" parent="1">
          <mxGeometry x="340" y="800" width="120" height="50" as="geometry" />
        </mxCell>
        <mxCell id="OowxRQwR9CB8sg7_UXT1-8" value="TouchPlistFile.py" style="whiteSpace=wrap;html=1;" vertex="1" parent="1">
          <mxGeometry x="340" y="910" width="120" height="50" as="geometry" />
        </mxCell>
        <mxCell id="OowxRQwR9CB8sg7_UXT1-9" value="Send Message" style="whiteSpace=wrap;html=1;" vertex="1" parent="1">
          <mxGeometry x="340" y="1070" width="120" height="50" as="geometry" />
        </mxCell>
        <mxCell id="OowxRQwR9CB8sg7_UXT1-13" style="edgeStyle=orthogonalEdgeStyle;rounded=0;orthogonalLoop=1;jettySize=auto;html=1;entryX=0.5;entryY=0;entryDx=0;entryDy=0;" edge="1" parent="1" source="OowxRQwR9CB8sg7_UXT1-11" target="OowxRQwR9CB8sg7_UXT1-3">
          <mxGeometry relative="1" as="geometry" />
        </mxCell>
        <mxCell id="OowxRQwR9CB8sg7_UXT1-18" value="webhook" style="edgeLabel;html=1;align=center;verticalAlign=middle;resizable=0;points=[];" vertex="1" connectable="0" parent="OowxRQwR9CB8sg7_UXT1-13">
          <mxGeometry x="-0.1333" y="1" relative="1" as="geometry">
            <mxPoint as="offset" />
          </mxGeometry>
        </mxCell>
        <mxCell id="OowxRQwR9CB8sg7_UXT1-11" value="" style="whiteSpace=wrap;html=1;fillColor=none;strokeColor=#82b366;dashed=1;strokeWidth=2;" vertex="1" parent="1">
          <mxGeometry x="135" y="230" width="530" height="160" as="geometry" />
        </mxCell>
        <mxCell id="OowxRQwR9CB8sg7_UXT1-12" value="改 Bug" style="text;html=1;align=center;verticalAlign=middle;resizable=0;points=[];autosize=1;strokeColor=none;fillColor=none;fontColor=#82B366;" vertex="1" parent="1">
          <mxGeometry x="150" y="295" width="60" height="30" as="geometry" />
        </mxCell>
        <mxCell id="OowxRQwR9CB8sg7_UXT1-25" style="edgeStyle=orthogonalEdgeStyle;rounded=0;orthogonalLoop=1;jettySize=auto;html=1;entryX=0.5;entryY=0;entryDx=0;entryDy=0;fontColor=#82B366;" edge="1" parent="1" source="OowxRQwR9CB8sg7_UXT1-14" target="OowxRQwR9CB8sg7_UXT1-21">
          <mxGeometry relative="1" as="geometry" />
        </mxCell>
        <mxCell id="OowxRQwR9CB8sg7_UXT1-14" value="" style="whiteSpace=wrap;html=1;fillColor=none;strokeColor=#82b366;dashed=1;strokeWidth=2;" vertex="1" parent="1">
          <mxGeometry x="135" y="670" width="530" height="80" as="geometry" />
        </mxCell>
        <mxCell id="OowxRQwR9CB8sg7_UXT1-15" value="构建 App" style="text;html=1;align=center;verticalAlign=middle;resizable=0;points=[];autosize=1;strokeColor=none;fillColor=none;fontColor=#82B366;" vertex="1" parent="1">
          <mxGeometry x="150" y="700" width="70" height="30" as="geometry" />
        </mxCell>
        <mxCell id="OowxRQwR9CB8sg7_UXT1-26" style="edgeStyle=orthogonalEdgeStyle;rounded=0;orthogonalLoop=1;jettySize=auto;html=1;entryX=0.5;entryY=0;entryDx=0;entryDy=0;fontColor=#82B366;" edge="1" parent="1" source="OowxRQwR9CB8sg7_UXT1-21" target="OowxRQwR9CB8sg7_UXT1-23">
          <mxGeometry relative="1" as="geometry" />
        </mxCell>
        <mxCell id="OowxRQwR9CB8sg7_UXT1-21" value="" style="whiteSpace=wrap;html=1;fillColor=none;strokeColor=#82b366;dashed=1;strokeWidth=2;" vertex="1" parent="1">
          <mxGeometry x="135" y="780" width="530" height="80" as="geometry" />
        </mxCell>
        <mxCell id="OowxRQwR9CB8sg7_UXT1-22" value="缓存 IPA" style="text;html=1;align=center;verticalAlign=middle;resizable=0;points=[];autosize=1;strokeColor=none;fillColor=none;fontColor=#82B366;" vertex="1" parent="1">
          <mxGeometry x="149" y="810" width="70" height="30" as="geometry" />
        </mxCell>
        <mxCell id="OowxRQwR9CB8sg7_UXT1-31" style="edgeStyle=orthogonalEdgeStyle;rounded=0;orthogonalLoop=1;jettySize=auto;html=1;fontColor=#000000;" edge="1" parent="1" source="OowxRQwR9CB8sg7_UXT1-23" target="OowxRQwR9CB8sg7_UXT1-29">
          <mxGeometry relative="1" as="geometry" />
        </mxCell>
        <mxCell id="OowxRQwR9CB8sg7_UXT1-32" value="HTTP API" style="edgeLabel;html=1;align=center;verticalAlign=middle;resizable=0;points=[];fontColor=#000000;" vertex="1" connectable="0" parent="OowxRQwR9CB8sg7_UXT1-31">
          <mxGeometry x="-0.2" y="-2" relative="1" as="geometry">
            <mxPoint as="offset" />
          </mxGeometry>
        </mxCell>
        <mxCell id="OowxRQwR9CB8sg7_UXT1-23" value="" style="whiteSpace=wrap;html=1;fillColor=none;strokeColor=#82b366;dashed=1;strokeWidth=2;" vertex="1" parent="1">
          <mxGeometry x="135" y="895" width="530" height="80" as="geometry" />
        </mxCell>
        <mxCell id="OowxRQwR9CB8sg7_UXT1-24" value="构建下载能力" style="text;html=1;align=center;verticalAlign=middle;resizable=0;points=[];autosize=1;strokeColor=none;fillColor=none;fontColor=#82B366;" vertex="1" parent="1">
          <mxGeometry x="146" y="920" width="100" height="30" as="geometry" />
        </mxCell>
        <mxCell id="OowxRQwR9CB8sg7_UXT1-33" style="edgeStyle=orthogonalEdgeStyle;rounded=0;orthogonalLoop=1;jettySize=auto;html=1;entryX=0;entryY=0.5;entryDx=0;entryDy=0;fontColor=#000000;" edge="1" parent="1" source="OowxRQwR9CB8sg7_UXT1-29" target="OowxRQwR9CB8sg7_UXT1-6">
          <mxGeometry relative="1" as="geometry" />
        </mxCell>
        <mxCell id="OowxRQwR9CB8sg7_UXT1-29" value="" style="whiteSpace=wrap;html=1;fillColor=none;strokeColor=#82b366;dashed=1;strokeWidth=2;" vertex="1" parent="1">
          <mxGeometry x="135" y="1050" width="530" height="80" as="geometry" />
        </mxCell>
        <mxCell id="OowxRQwR9CB8sg7_UXT1-30" value="消息通知" style="text;html=1;align=center;verticalAlign=middle;resizable=0;points=[];autosize=1;strokeColor=none;fillColor=none;fontColor=#82B366;" vertex="1" parent="1">
          <mxGeometry x="152" y="1070" width="70" height="30" as="geometry" />
        </mxCell>
      </root>
    </mxGraphModel>
  </diagram>
</mxfile>
